<?xml version="1.0" encoding="utf-8"?>
<svg viewBox="0 0 512 512" style="enable-background:new 0 0 512 512;" xmlns="http://www.w3.org/2000/svg">
  <g>
    <g>
      <path pathLength="1" d="M 508.764 74.466 C 505.961 70.963 501.718 68.92399999999999 497.231 68.92399999999999 L 104.152 68.92399999999999 L 93.16 21.294 C 91.613 14.593 85.646 9.846 78.76899999999999 9.846 L 14.768999999999991 9.846 C 6.6129999999999995 9.846 0 16.459 0 24.616 C 0 32.772999999999996 6.6129999999999995 39.385 14.769 39.385 L 67.02 39.385 L 141.632 362.706 C 143.178 369.40700000000004 149.14600000000002 374.154 156.023 374.154 L 451.938 374.154 C 460.09499999999997 374.154 466.707 367.541 466.707 359.385 C 466.707 351.228 460.094 344.616 451.938 344.616 L 167.773 344.616 L 156.413 295.385 L 452.92400000000004 295.385 C 459.83200000000005 295.385 465.817 290.597 467.333 283.858 L 511.64 86.935 C 512.625 82.557 511.567 77.97 508.764 74.466 M 441.108 265.846 L 149.596 265.846 L 110.969 98.462 L 478.769 98.462 L 441.108 265.846" style="fill: none; stroke: rgb(255, 192, 7); stroke-width: 7px;"/>
    </g>
  </g>
  <g>
    <g>
      <path pathLength="1" d="M216.615,393.846c-29.86,0-54.154,24.293-54.154,54.154s24.293,54.154,54.154,54.154c29.86,0,54.154-24.293,54.154-54.154 S246.476,393.846,216.615,393.846z M216.615,472.616C203.042,472.616,192,461.573,192,448s11.042-24.615,24.615-24.615 c13.573,0,24.615,11.042,24.615,24.615S230.188,472.616,216.615,472.616z" style="fill: none; stroke: rgb(0, 0, 0); stroke-width: 8px;"/>
      <path pathLength="1" d="M 271.269 448 C 271.269 463.033 265.112 476.76 255.243 486.628 C 245.374 496.497 231.647 502.654 216.615 502.654 C 201.582 502.654 187.855 496.497 177.987 486.628 C 168.118 476.76 161.961 463.033 161.961 448 C 161.961 432.967 168.118 419.24 177.987 409.372 C 187.856 399.503 201.583 393.346 216.615 393.346 C 231.648 393.346 245.375 399.503 255.243 409.372 C 265.112 419.24 271.269 432.967 271.269 448 Z M 254.536 410.079 C 244.793 400.336 231.443 394.346 216.615 394.346 C 201.787 394.346 188.437 400.336 178.694 410.079 C 168.951 419.822 162.961 433.172 162.961 448 C 162.961 462.828 168.951 476.178 178.694 485.921 C 188.437 495.664 201.787 501.654 216.615 501.654 C 231.443 501.654 244.793 495.664 254.536 485.921 C 264.279 476.178 270.269 462.828 270.269 448 C 270.269 433.172 264.279 419.822 254.536 410.079 Z M 216.615 473.116 C 209.726 473.116 203.384 470.272 198.864 465.751 C 194.344 461.231 191.5 454.889 191.5 448 C 191.5 441.111 194.344 434.769 198.864 430.249 C 203.384 425.729 209.726 422.885 216.615 422.885 C 223.504 422.885 229.846 425.729 234.366 430.249 C 238.886 434.769 241.73 441.111 241.73 448 C 241.73 454.889 238.886 461.231 234.366 465.751 C 229.846 470.272 223.504 473.116 216.615 473.116 Z M 233.659 465.044 C 238.053 460.65 240.73 454.684 240.73 448 C 240.73 441.316 238.053 435.35 233.659 430.956 C 229.265 426.562 223.299 423.885 216.615 423.885 C 209.931 423.885 203.965 426.562 199.571 430.956 C 195.177 435.35 192.5 441.316 192.5 448 C 192.5 454.684 195.177 460.65 199.571 465.044 C 203.965 469.439 209.931 472.116 216.615 472.116 C 223.299 472.116 229.265 469.439 233.659 465.044 Z" style="fill: none;"/>
    </g>
  </g>
  <g>
    <g>
      <path pathLength="1" d="M393.846,393.846c-29.86,0-54.154,24.293-54.154,54.154s24.293,54.154,54.154,54.154c29.86,0,54.154-24.293,54.154-54.154 S423.707,393.846,393.846,393.846z M393.846,472.616c-13.573,0-24.615-11.042-24.615-24.615s11.042-24.615,24.615-24.615 c13.573,0,24.615,11.042,24.615,24.615S407.419,472.616,393.846,472.616z" style="fill: none; stroke: rgb(0, 0, 0); stroke-width: 8px;"/>
    </g>
  </g>
</svg>