<svg version="1.2" baseProfile="tiny-ps" xmlns="http://www.w3.org/2000/svg" viewBox="0 0 1103 480" width="147" height="64">
	<title>cart-svg</title>
	<style>
		tspan { white-space:pre }
		.shp0 { fill: #ffc107 } 
		.shp1 { fill: #fafafa } 
		.shp2 { fill: #455a64 } 
	</style>
	<path id="Layer" class="shp0" d="M508.29 69.76C505.25 66.12 500.74 64 496 64L107.52 64C102.56 64 97.86 66.31 94.82 70.24C91.81 74.21 90.78 79.33 92.06 84.13L143.26 275.49C145.15 282.53 151.49 287.36 158.72 287.36C158.98 287.36 159.26 287.36 159.52 287.33L464.8 271.97C472.19 271.59 478.4 266.18 479.74 258.88L511.74 82.88C512.61 78.18 511.33 73.38 508.29 69.76Z" />
	<g id="Layer">
		<path id="Layer" class="shp1" d="M400 224C391.17 224 384 216.84 384 208L384 144C384 135.17 391.17 128 400 128C408.83 128 416 135.17 416 144L416 208C416 216.84 408.83 224 400 224Z" />
		<path id="Layer" class="shp1" d="M304 224C295.17 224 288 216.84 288 208L288 144C288 135.17 295.17 128 304 128C312.83 128 320 135.17 320 144L320 208C320 216.84 312.83 224 304 224Z" />
		<path id="Layer" class="shp1" d="M208 224C199.17 224 192 216.84 192 208L192 144C192 135.17 199.17 128 208 128C216.83 128 224 135.17 224 144L224 208C224 216.84 216.83 224 208 224Z" />
	</g>
	<g id="Layer">
		<path id="Layer" class="shp2" d="M208 480C181.46 480 160 458.55 160 432C160 405.46 181.46 384 208 384C234.54 384 256 405.46 256 432C256 458.55 234.54 480 208 480Z" />
		<path id="Layer" class="shp2" d="M400 480C373.46 480 352 458.55 352 432C352 405.46 373.46 384 400 384C426.54 384 448 405.46 448 432C448 458.55 426.54 480 400 480Z" />
		<path id="Layer" class="shp2" d="M432 352L176 352C168.74 352 162.4 347.14 160.54 340.13L78.27 32L16 32C7.17 32 0 24.84 0 16C0 7.17 7.17 0 16 0L90.56 0C97.82 0 104.16 4.87 106.02 11.88L188.29 320L432 320C440.83 320 448 327.17 448 336C448 344.84 440.83 352 432 352Z" />
	</g>
	<g id="Layer">
	</g>
	<g id="Layer">
	</g>
	<g id="Layer">
	</g>
	<g id="Layer">
	</g>
	<g id="Layer">
	</g>
	<g id="Layer">
	</g>
	<g id="Layer">
	</g>
	<g id="Layer">
	</g>
	<g id="Layer">
	</g>
	<g id="Layer">
	</g>
	<g id="Layer">
	</g>
	<g id="Layer">
	</g>
	<g id="Layer">
	</g>
	<g id="Layer">
	</g>
	<g id="Layer">
		<path id="MERCADO " fill="#ffffff" aria-label="MERCADO"  d="M634.42 109.54L616.87 109.54L593.42 160.59L569.7 109.54L552.15 109.54L552.15 202L569.7 202L569.7 146.79L587.52 184.18L599.32 184.18L616.87 147.19L616.87 202L634.42 202ZM667.79 124.82L708.93 124.82L708.93 109.54L650.24 109.54L650.24 202L708.93 202L708.93 186.72L667.79 186.72L667.79 163.01L702.9 163.01L702.9 147.73L667.79 147.73ZM752.21 164.48L769.76 202L790 202L769.9 161.8C775.17 159.83 779.21 156.75 782.03 152.55C784.84 148.36 786.25 143.22 786.25 137.14C786.25 128.66 783.57 121.93 778.21 116.98C772.85 112.02 765.65 109.54 756.63 109.54L721.52 109.54L721.52 202L739.08 202L739.08 164.48ZM739.08 149.87L739.08 124.82L755.69 124.82C759.71 124.82 762.89 125.93 765.21 128.17C767.53 130.4 768.69 133.39 768.69 137.14C768.69 141.25 767.55 144.4 765.28 146.59C763 148.78 759.8 149.87 755.69 149.87ZM798.04 166.22C798.04 190.79 809.25 203.07 831.67 203.07C841.95 203.07 850.03 200.41 855.93 195.1C861.82 189.78 864.77 182.17 864.77 172.25L864.77 171.31L847.48 171.31L847.48 172.39C847.48 177.03 846.17 180.69 843.53 183.37C840.9 186.05 837.08 187.39 832.07 187.39C826.45 187.39 822.32 185.7 819.68 182.3C817.04 178.91 815.73 173.46 815.73 165.95L815.73 145.99C815.73 138.04 817 132.32 819.55 128.84C822.09 125.35 826.18 123.61 831.81 123.61C836.81 123.61 840.67 124.99 843.4 127.76C846.12 130.53 847.48 134.29 847.48 139.02L847.48 139.82L865.04 139.82L865.04 138.89C865.04 129.15 862.05 121.6 856.06 116.24C850.08 110.88 842.04 108.2 831.94 108.2C809.34 108.2 798.04 120.48 798.04 145.05ZM924.13 184.04L929.76 202L948.39 202L915.42 109.54L901.08 109.54L868.25 202L886.75 202L892.37 184.04ZM919.44 169.44L897.06 169.44L908.19 133.93ZM956.83 109.54L956.83 202L988.85 202C999.22 202 1007.44 199.12 1013.51 193.36C1019.59 187.59 1022.62 178.19 1022.62 165.15L1022.62 146.26C1022.62 133.21 1019.65 123.83 1013.71 118.12C1007.77 112.4 999.66 109.54 989.39 109.54ZM989.26 186.72L974.38 186.72L974.38 124.82L989.26 124.82C994.62 124.82 998.59 126.58 1001.18 130.11C1003.77 133.64 1005.07 139.33 1005.07 147.19L1005.07 165.02C1005.07 172.52 1003.75 178.01 1001.12 181.5C998.48 184.98 994.53 186.72 989.26 186.72ZM1036.02 166.22C1036.02 190.79 1047.06 203.07 1069.12 203.07C1079.48 203.07 1087.72 200.19 1093.84 194.43C1099.96 188.67 1103.02 179.27 1103.02 166.22L1103.02 145.05C1103.02 132.01 1100.03 122.6 1094.05 116.84C1088.06 111.08 1079.93 108.2 1069.66 108.2C1047.23 108.2 1036.02 120.48 1036.02 145.05ZM1081.58 182.24C1078.99 185.68 1075.02 187.39 1069.66 187.39C1064.03 187.39 1059.96 185.72 1057.46 182.37C1054.96 179.02 1053.71 173.55 1053.71 165.95L1053.71 145.99C1053.71 137.95 1054.96 132.21 1057.46 128.77C1059.96 125.33 1064.03 123.61 1069.66 123.61C1075.02 123.61 1078.99 125.37 1081.58 128.9C1084.17 132.43 1085.47 138.13 1085.47 145.99L1085.47 165.95C1085.47 173.37 1084.17 178.8 1081.58 182.24Z" />
		<path id="REDDIT " fill="#ffffff" aria-label="REDDIT"  d="M583.98 286.48L601.54 324L621.77 324L601.67 283.8C606.94 281.83 610.98 278.75 613.8 274.55C616.61 270.36 618.02 265.22 618.02 259.14C618.02 250.66 615.34 243.93 609.98 238.98C604.62 234.02 597.43 231.54 588.4 231.54L553.3 231.54L553.3 324L570.85 324L570.85 286.48ZM570.85 271.87L570.85 246.82L587.47 246.82C591.49 246.82 594.66 247.93 596.98 250.17C599.3 252.4 600.46 255.39 600.46 259.14C600.46 263.25 599.33 266.4 597.05 268.59C594.77 270.78 591.58 271.87 587.47 271.87ZM649.91 246.82L691.05 246.82L691.05 231.54L632.36 231.54L632.36 324L691.05 324L691.05 308.72L649.91 308.72L649.91 285.01L685.02 285.01L685.02 269.73L649.91 269.73ZM703.64 231.54L703.64 324L735.67 324C746.03 324 754.25 321.12 760.33 315.36C766.4 309.59 769.44 300.19 769.44 287.15L769.44 268.26C769.44 255.21 766.47 245.83 760.53 240.12C754.59 234.4 746.48 231.54 736.21 231.54ZM736.07 308.72L721.2 308.72L721.2 246.82L736.07 246.82C741.43 246.82 745.41 248.58 748 252.11C750.59 255.64 751.88 261.33 751.88 269.19L751.88 287.02C751.88 294.52 750.57 300.01 747.93 303.5C745.3 306.98 741.34 308.72 736.07 308.72ZM782.7 231.54L782.7 324L814.73 324C825.09 324 833.31 321.12 839.39 315.36C845.46 309.59 848.5 300.19 848.5 287.15L848.5 268.26C848.5 255.21 845.53 245.83 839.59 240.12C833.65 234.4 825.54 231.54 815.27 231.54ZM815.13 308.72L800.26 308.72L800.26 246.82L815.13 246.82C820.49 246.82 824.47 248.58 827.06 252.11C829.65 255.64 830.94 261.33 830.94 269.19L830.94 287.02C830.94 294.52 829.63 300.01 826.99 303.5C824.36 306.98 820.4 308.72 815.13 308.72ZM862.57 231.54L862.57 324L880.12 324L880.12 231.54ZM954.49 246.82L954.49 231.54L889.64 231.54L889.64 246.82L913.22 246.82L913.22 324L930.91 324L930.91 246.82Z" />
	</g>
</svg>