<svg version="1.2" baseProfile="tiny-ps" xmlns="http://www.w3.org/2000/svg" viewBox="0 0 1103 480" width="147" height="64">
	<title>cart-svg-svg</title>
	<style>
		tspan { white-space:pre }
		.shp0 { fill: #ffc107 } 
		.shp1 { fill: #fafafa } 
		.shp2 { fill: #455a64 } 
		.shp3 { fill: #ffffff } 
	</style>
	<path id="Layer" class="shp0" d="M508.29 69.76C505.25 66.12 500.74 64 496 64L107.52 64C102.56 64 97.86 66.31 94.82 70.24C91.81 74.21 90.78 79.33 92.06 84.13L143.26 275.49C145.15 282.53 151.49 287.36 158.72 287.36C158.98 287.36 159.26 287.36 159.52 287.33L464.8 271.97C472.19 271.59 478.4 266.18 479.74 258.88L511.74 82.88C512.61 78.18 511.33 73.38 508.29 69.76Z" />
	<g id="Layer">
		<path id="Layer" class="shp1" d="M400 224C391.17 224 384 216.84 384 208L384 144C384 135.17 391.17 128 400 128C408.83 128 416 135.17 416 144L416 208C416 216.84 408.83 224 400 224Z" />
		<path id="Layer" class="shp1" d="M304 224C295.17 224 288 216.84 288 208L288 144C288 135.17 295.17 128 304 128C312.83 128 320 135.17 320 144L320 208C320 216.84 312.83 224 304 224Z" />
		<path id="Layer" class="shp1" d="M208 224C199.17 224 192 216.84 192 208L192 144C192 135.17 199.17 128 208 128C216.83 128 224 135.17 224 144L224 208C224 216.84 216.83 224 208 224Z" />
	</g>
	<g id="Layer">
		<path id="Layer" class="shp2" d="M208 480C181.46 480 160 458.55 160 432C160 405.46 181.46 384 208 384C234.54 384 256 405.46 256 432C256 458.55 234.54 480 208 480Z" />
		<path id="Layer" class="shp2" d="M400 480C373.46 480 352 458.55 352 432C352 405.46 373.46 384 400 384C426.54 384 448 405.46 448 432C448 458.55 426.54 480 400 480Z" />
		<path id="Layer" class="shp2" d="M432 352L176 352C168.74 352 162.4 347.14 160.54 340.13L78.27 32L16 32C7.17 32 0 24.84 0 16C0 7.17 7.17 0 16 0L90.56 0C97.82 0 104.16 4.87 106.02 11.88L188.29 320L432 320C440.83 320 448 327.17 448 336C448 344.84 440.83 352 432 352Z" />
	</g>
	<g id="Layer">
	</g>
	<g id="Layer">
	</g>
	<g id="Layer">
	</g>
	<g id="Layer">
	</g>
	<g id="Layer">
	</g>
	<g id="Layer">
	</g>
	<g id="Layer">
	</g>
	<g id="Layer">
	</g>
	<g id="Layer">
	</g>
	<g id="Layer">
	</g>
	<g id="Layer">
	</g>
	<g id="Layer">
	</g>
	<g id="Layer">
	</g>
	<g id="Layer">
	</g>
	<g id="Layer">
		<path id="MERCADO " fill-rule="evenodd" class="shp3" d="M634.42 202L616.87 202L616.87 147.19L599.32 184.18L587.52 184.18L569.7 146.79L569.7 202L552.15 202L552.15 109.54L569.7 109.54L593.42 160.59L616.87 109.54L634.42 109.54L634.42 202ZM667.79 147.73L702.9 147.73L702.9 163.01L667.79 163.01L667.79 186.72L708.93 186.72L708.93 202L650.24 202L650.24 109.54L708.93 109.54L708.93 124.82L667.79 124.82L667.79 147.73ZM739.08 164.48L739.08 202L721.52 202L721.52 109.54L756.63 109.54C765.65 109.54 772.85 112.02 778.21 116.98C783.57 121.93 786.25 128.66 786.25 137.14C786.25 143.22 784.84 148.36 782.03 152.55C779.21 156.75 775.17 159.83 769.9 161.8L790 202L769.76 202L752.21 164.48L739.08 164.48ZM755.69 149.87C759.8 149.87 763 148.78 765.28 146.59C767.55 144.4 768.69 141.25 768.69 137.14C768.69 133.39 767.53 130.4 765.21 128.17C762.89 125.93 759.71 124.82 755.69 124.82L739.08 124.82L739.08 149.87L755.69 149.87ZM798.04 145.05C798.04 120.48 809.34 108.2 831.94 108.2C842.04 108.2 850.08 110.88 856.06 116.24C862.05 121.6 865.04 129.15 865.04 138.89L865.04 139.82L847.48 139.82L847.48 139.02C847.48 134.29 846.12 130.53 843.4 127.76C840.67 124.99 836.81 123.61 831.81 123.61C826.18 123.61 822.09 125.35 819.55 128.84C817 132.32 815.73 138.04 815.73 145.99L815.73 165.95C815.73 173.46 817.04 178.91 819.68 182.3C822.32 185.7 826.45 187.39 832.07 187.39C837.08 187.39 840.9 186.05 843.53 183.37C846.17 180.69 847.48 177.03 847.48 172.39L847.48 171.31L864.77 171.31L864.77 172.25C864.77 182.17 861.82 189.78 855.93 195.1C850.03 200.41 841.95 203.07 831.67 203.07C809.25 203.07 798.04 190.79 798.04 166.22L798.04 145.05ZM892.37 184.04L886.75 202L868.25 202L901.08 109.54L915.42 109.54L948.39 202L929.76 202L924.13 184.04L892.37 184.04ZM908.19 133.93L897.06 169.44L919.44 169.44L908.19 133.93ZM989.39 109.54C999.66 109.54 1007.77 112.4 1013.71 118.12C1019.65 123.83 1022.62 133.21 1022.62 146.26L1022.62 165.15C1022.62 178.19 1019.59 187.59 1013.51 193.36C1007.44 199.12 999.22 202 988.85 202L956.83 202L956.83 109.54L989.39 109.54ZM1001.12 181.5C1003.75 178.01 1005.07 172.52 1005.07 165.02L1005.07 147.19C1005.07 139.33 1003.77 133.64 1001.18 130.11C998.59 126.58 994.62 124.82 989.26 124.82L974.38 124.82L974.38 186.72L989.26 186.72C994.53 186.72 998.48 184.98 1001.12 181.5ZM1036.02 145.05C1036.02 120.48 1047.23 108.2 1069.66 108.2C1079.93 108.2 1088.06 111.08 1094.05 116.84C1100.03 122.6 1103.02 132.01 1103.02 145.05L1103.02 166.22C1103.02 179.27 1099.96 188.67 1093.84 194.43C1087.72 200.19 1079.48 203.07 1069.12 203.07C1047.06 203.07 1036.02 190.79 1036.02 166.22L1036.02 145.05ZM1085.47 165.95L1085.47 145.99C1085.47 138.13 1084.17 132.43 1081.58 128.9C1078.99 125.37 1075.02 123.61 1069.66 123.61C1064.03 123.61 1059.96 125.33 1057.46 128.77C1054.96 132.21 1053.71 137.95 1053.71 145.99L1053.71 165.95C1053.71 173.55 1054.96 179.02 1057.46 182.37C1059.96 185.72 1064.03 187.39 1069.66 187.39C1075.02 187.39 1078.99 185.68 1081.58 182.24C1084.17 178.8 1085.47 173.37 1085.47 165.95Z" />
		<path id="TURRO " fill="#ffffff" aria-label="TURRO"  d="M613.8 247.27L613.8 232.68L551.85 232.68L551.85 247.27L574.37 247.27L574.37 321L591.27 321L591.27 247.27ZM637.54 317.99C642.36 320.51 647.76 321.77 653.73 321.77C659.79 321.77 665.23 320.51 670.05 317.99C674.88 315.47 678.67 311.93 681.45 307.37C684.22 302.8 685.61 297.62 685.61 291.82L685.61 232.68L668.71 232.68L668.71 291.3C668.71 296.34 667.37 300.24 664.68 303.02C661.99 305.79 658.34 307.18 653.74 307.18C649.13 307.18 645.5 305.79 642.86 303.02C640.21 300.24 638.89 296.34 638.89 291.3L638.89 232.68L622.12 232.68L622.12 291.82C622.12 297.62 623.48 302.8 626.22 307.37C628.95 311.93 632.72 315.47 637.54 317.99ZM730.02 285.16L746.79 321L766.12 321L746.92 282.6C751.95 280.72 755.81 277.78 758.5 273.77C761.19 269.76 762.53 264.85 762.53 259.05C762.53 250.94 759.97 244.52 754.85 239.78C749.73 235.05 742.86 232.68 734.25 232.68L700.71 232.68L700.71 321L717.48 321L717.48 285.16ZM717.48 271.21L717.48 247.27L733.35 247.27C737.19 247.27 740.22 248.34 742.44 250.47C744.66 252.6 745.77 255.46 745.77 259.05C745.77 262.97 744.68 265.98 742.5 268.07C740.33 270.16 737.28 271.21 733.35 271.21ZM805.54 285.16L822.31 321L841.64 321L822.44 282.6C827.47 280.72 831.33 277.78 834.02 273.77C836.71 269.76 838.05 264.85 838.05 259.05C838.05 250.94 835.49 244.52 830.37 239.78C825.25 235.05 818.38 232.68 809.77 232.68L776.23 232.68L776.23 321L793 321L793 285.16ZM793 271.21L793 247.27L808.87 247.27C812.71 247.27 815.74 248.34 817.96 250.47C820.18 252.6 821.29 255.46 821.29 259.05C821.29 262.97 820.2 265.98 818.02 268.07C815.85 270.16 812.8 271.21 808.87 271.21ZM849.32 286.82C849.32 310.29 859.86 322.02 880.93 322.02C890.83 322.02 898.71 319.27 904.55 313.77C910.4 308.26 913.32 299.28 913.32 286.82L913.32 266.6C913.32 254.14 910.46 245.16 904.74 239.66C899.03 234.15 891.26 231.4 881.45 231.4C860.03 231.4 849.32 243.13 849.32 266.6ZM892.84 302.12C890.36 305.41 886.57 307.05 881.45 307.05C876.07 307.05 872.19 305.45 869.8 302.25C867.41 299.05 866.21 293.82 866.21 286.57L866.21 267.5C866.21 259.82 867.41 254.33 869.8 251.05C872.19 247.76 876.07 246.12 881.45 246.12C886.57 246.12 890.36 247.81 892.84 251.18C895.31 254.55 896.55 259.99 896.55 267.5L896.55 286.57C896.55 293.65 895.31 298.84 892.84 302.12Z" />
	</g>
</svg>